# xmcd
#
# Track frame offsets: 
#        150
#        16183
#        39504
#        64574
#        80741
#        101914
#        123881
#        149179
#        169269
#        193945
#        213699
#        234118
#        248411
#        269548
#        291919
#        313554
#
# Disc length: 4467 seconds
#
# Revision: 0
# Processed by: cddbd v1.5.2PL0 Copyright (c) Steve Scherf et al.
# Submitted via: ExactAudioCopyFreeDBPlugin 1.0
#
DISCID=ed117110
DTITLE=ゴスペラーズ - G20
DYEAR=2014
DGENRE=JPop
TTITLE0=侍ゴスペラーズ
TTITLE1=LOVE MACHINE
TTITLE2=永遠に
TTITLE3=ひとり
TTITLE4=星屑の街
TTITLE5=靴は履いたまま
TTITLE6=Beginning
TTITLE7=Slow Luv
TTITLE8=東京スヰート
TTITLE9=GOD BLESS YOU
TTITLE10=U'll Be Mine
TTITLE11=いろは
TTITLE12=FIVE KEYS
TTITLE13=告白
TTITLE14=あたらしい世界
TTITLE15=Promise -a cappella-
EXTD=
EXTT0=
EXTT1=
EXTT2=
EXTT3=
EXTT4=
EXTT5=
EXTT6=
EXTT7=
EXTT8=
EXTT9=
EXTT10=
EXTT11=
EXTT12=
EXTT13=
EXTT14=
EXTT15=
PLAYORDER=
